<svg width="40" height="40" viewBox="0 0 40 40" fill="none" xmlns="http://www.w3.org/2000/svg">
<path d="M11.5 16.2308V13.4615C11.5 11.5498 13.067 10 15 10C16.933 10 18.5 11.5498 18.5 13.4615L18.5 17.2692C18.5 18.2251 17.7165 19 16.75 19C15.7835 19 15 18.2251 15 17.2692L15 13.4615" stroke="#58595B" stroke-width="1.5" stroke-linecap="round"/>
<path d="M20.5 10H20.7727C24.0339 10 25.6645 10 26.7969 10.7978C27.1214 11.0264 27.4094 11.2975 27.6523 11.6029C28.5 12.6687 28.5 14.2034 28.5 17.2727V19.8182C28.5 22.7814 28.5 24.2629 28.0311 25.4462C27.2772 27.3486 25.6829 28.8491 23.6616 29.5586C22.4044 30 20.8302 30 17.6818 30C15.8827 30 14.9832 30 14.2648 29.7478C13.1098 29.3424 12.1988 28.4849 11.768 27.3979C11.5 26.7217 11.5 25.8751 11.5 24.1818V20" stroke="#58595B" stroke-width="1.5" stroke-linecap="round" stroke-linejoin="round"/>
<path d="M28.5 20C28.5 21.8409 27.0076 23.3333 25.1667 23.3333C24.5009 23.3333 23.716 23.2167 23.0686 23.3901C22.4935 23.5442 22.0442 23.9935 21.8901 24.5686C21.7167 25.216 21.8333 26.0009 21.8333 26.6667C21.8333 28.5076 20.3409 30 18.5 30" stroke="#58595B" stroke-width="1.5" stroke-linecap="round" stroke-linejoin="round"/>
</svg>
