<svg width="20" height="20" viewBox="0 0 20 20" fill="none" xmlns="http://www.w3.org/2000/svg">
<g clip-path="url(#clip0_20310_1081)">
<path d="M10.354 0.0964355C4.94332 0.0964355 0.614746 4.3133 0.614746 9.61451C0.614746 14.9157 4.82308 19.2531 10.1136 19.3735H10.2338C12.7588 19.3735 15.1636 18.4097 16.9671 16.6025C18.7707 14.7952 19.8528 12.3856 19.8528 9.73499C19.8528 4.43378 15.7647 0.216917 10.354 0.0964355ZM18.41 9.73499C18.41 11.9037 17.5683 13.9519 16.0052 15.5181C14.4421 17.0844 12.3981 17.9278 10.2338 17.9278C5.78499 17.9278 2.0576 14.1928 2.0576 9.73499C2.0576 7.56632 2.89927 5.51812 4.46237 3.95186C6.02546 2.38559 8.06951 1.54222 10.2338 1.54222C12.3981 1.54222 14.4421 2.38559 16.0052 3.95186C17.5683 5.51812 18.41 7.56632 18.41 9.73499Z" fill="#C05602"/>
<path d="M12.2779 10.9398C11.9172 10.4579 11.4363 10.0965 11.0755 9.61454L10.9553 9.49406C10.9553 8.65069 10.9553 7.68683 10.9553 6.84346V5.63864C10.9553 5.03623 10.9553 4.43382 10.9553 3.83141C10.9553 3.59045 10.8351 3.34948 10.7148 3.229C10.5946 2.98804 10.3541 2.98804 10.1136 2.98804C9.75293 3.10852 9.51245 3.34948 9.51245 3.83141V7.56635C9.51245 8.28924 9.51245 9.01213 9.51245 9.73503C9.51245 10.0965 9.63269 10.3374 9.87317 10.6989C10.2339 10.9398 10.5946 11.3013 10.9553 11.6627L11.797 12.5061C12.1577 12.8676 12.3982 13.1085 12.7589 13.47C12.8791 13.5904 13.1196 13.7109 13.2398 13.7109C13.3601 13.7109 13.3601 13.7109 13.4803 13.7109C13.7208 13.5904 13.9613 13.47 13.9613 13.229C14.0815 12.988 13.9613 12.7471 13.7208 12.5061C13.3601 11.9037 12.7589 11.4218 12.2779 10.9398Z" fill="#C05602"/>
</g>
<defs>
<clipPath id="clip0_20310_1081">
<rect width="19.2381" height="19.2771" fill="white" transform="translate(0.614746 0.0964355)"/>
</clipPath>
</defs>
</svg>
