<svg width="18" height="20" viewBox="0 0 18 20" fill="none" xmlns="http://www.w3.org/2000/svg">
<path d="M4.79199 19.2501H13.208C14.1363 19.2501 15.0265 18.8813 15.6829 18.2249C16.3392 17.5686 16.708 16.6783 16.708 15.7501V10.2201C16.7083 9.29192 16.34 8.40165 15.684 7.74506L9.71499 1.77506C9.38996 1.45006 9.0041 1.19227 8.57944 1.0164C8.15478 0.84053 7.69963 0.750028 7.23999 0.750061H4.79199C3.86373 0.750061 2.9735 1.11881 2.31712 1.77519C1.66074 2.43156 1.29199 3.3218 1.29199 4.25006V15.7501C1.29199 16.6783 1.66074 17.5686 2.31712 18.2249C2.9735 18.8813 3.86373 19.2501 4.79199 19.2501Z" stroke="#58595B" stroke-linecap="round" stroke-linejoin="round"/>
<path d="M7.28166 4.66573L7.28207 4.6656C7.6501 4.54584 8.03717 4.59108 8.28198 4.78992L7.28166 4.66573ZM7.28166 4.66573C6.91858 4.78423 6.61095 5.05203 6.51588 5.43014L7.00079 5.55206L6.51637 5.4282C6.38089 5.95809 6.5361 6.4734 6.81289 6.99089L6.81289 6.99089L6.81355 6.99211C6.95191 7.24906 7.11771 7.50333 7.28826 7.75817L7.28869 7.75881L7.38069 7.89581L7.38125 7.89663L7.52625 8.11163L8.13119 9.00861L8.42234 7.96661L8.44114 7.89934M7.28166 4.66573L8.44114 7.89934M8.44114 7.89934L8.44134 7.89861M8.44114 7.89934L8.44134 7.89861M8.44134 7.89861L8.52633 7.59623C8.63063 7.24128 8.71174 6.88129 8.76961 6.51639L8.76971 6.5164L8.77105 6.50672C8.8688 5.80157 8.78414 5.19779 8.28208 4.79L8.44134 7.89861ZM8.62808 11.9087C8.3234 11.9657 7.93692 12.038 7.51582 12.1321L7.24203 12.1932L7.15152 12.4587L7.00701 12.8827C6.92442 13.0737 6.84566 13.2659 6.77072 13.4594L6.64997 13.7593L6.64996 13.7593L6.64869 13.7625C6.5338 14.0537 6.4008 14.3373 6.25047 14.6118C5.94931 15.138 5.54373 15.5631 4.91811 15.5978L4.91796 15.5978C4.09662 15.6436 3.51018 14.9275 3.67885 14.0932L3.68218 14.0782C3.829 13.5097 4.34959 13.0808 4.98837 12.7543L4.98885 12.754C5.5395 12.4718 6.19697 12.2567 6.82815 12.0918L7.08819 12.0239L7.17499 11.7695L7.96499 9.45454L8.05006 9.20526L7.89258 8.99413L7.63048 8.64271L7.61176 8.61464C7.49089 8.41563 7.35822 8.21891 7.22232 8.01849C7.22209 8.01814 7.22186 8.0178 7.22162 8.01746L7.12295 7.87043L7.12298 7.87041L7.11975 7.86571C6.94555 7.61245 6.78375 7.35089 6.63492 7.08195C6.34933 6.54866 6.16818 5.97938 6.32216 5.3781L6.32216 5.37807C6.43949 4.9198 6.80992 4.60961 7.21975 4.47544C7.62781 4.34298 8.09311 4.37881 8.40966 4.63526C8.99329 5.11005 9.06943 5.80573 8.96902 6.53183C8.91169 6.90533 8.82951 7.27461 8.72304 7.63718L8.72302 7.63718L8.7216 7.6422L8.62627 7.9798C8.55201 8.23322 8.48289 8.48823 8.41893 8.74484L8.35918 8.91784L8.27275 9.1681L8.43117 9.38024L9.82317 11.2442L9.99621 11.476L10.2834 11.4415C10.9175 11.3654 11.5964 11.322 12.2178 11.3668L12.2188 11.3668C12.9496 11.4182 13.625 11.593 14.0593 11.9989C14.1785 12.1252 14.2649 12.2788 14.3108 12.4464C14.3576 12.6169 14.3609 12.7963 14.3206 12.9684C14.2415 13.2904 14.01 13.58 13.6562 13.7649L13.6561 13.765C12.9337 14.1427 12.2371 13.8758 11.6086 13.3949L11.6082 13.3947C11.1189 13.021 10.6383 12.4901 10.2001 12.0042L10.2001 12.0042L10.1982 12.0021L10.0942 11.8881L9.91354 11.6901L9.64866 11.7309C9.27068 11.7891 8.9145 11.8543 8.62808 11.9087ZM8.62808 11.9087C8.62836 11.9087 8.62865 11.9086 8.62893 11.9086L8.72079 12.4001L8.62739 11.9089C8.62762 11.9088 8.62785 11.9088 8.62808 11.9087ZM8.76206 10.1584L8.19398 9.39953L7.88847 10.2969L7.60146 11.1399L7.32481 11.9525L8.16813 11.7923L8.58913 11.7123L8.60315 11.7096L8.60579 11.7089L8.97037 11.6418L9.76312 11.4958L9.28006 10.8504L8.76206 10.1584ZM11.1731 11.5629L10.1005 11.6245L10.8383 12.4054C11.1171 12.7005 11.4123 12.9942 11.7292 13.2364L11.7293 13.2364C12.0324 13.4679 12.3342 13.638 12.6447 13.7075C12.9743 13.7812 13.2822 13.7345 13.5637 13.587L13.5642 13.5868C13.8754 13.4234 14.0628 13.1779 14.1261 12.9222L14.1263 12.9222L14.1287 12.9112C14.1582 12.7797 14.1559 12.6431 14.1221 12.5126C14.0883 12.3821 14.024 12.2615 13.9344 12.1608L13.9148 12.1387L13.8926 12.119C13.51 11.7796 12.9075 11.6167 12.2045 11.5663L12.2045 11.5663L12.2006 11.5661C11.8585 11.5443 11.5153 11.5432 11.1731 11.5629ZM6.66117 13.1944L7.06481 12.183L5.07923 12.9318C4.45841 13.2491 4.0139 13.638 3.88148 14.1086L3.87548 14.1299L3.87139 14.1517C3.80866 14.4854 3.8793 14.8141 4.09111 15.0602C4.2994 15.3021 4.60329 15.4151 4.90652 15.3983C5.42943 15.3692 5.78715 15.0187 6.07891 14.5081L6.07897 14.5082L6.08319 14.5005C6.22916 14.2343 6.35733 13.9598 6.46765 13.6772L6.57366 13.4137L6.57417 13.4124L6.66117 13.1944Z" fill="#58595B" stroke="#58595B"/>
</svg>
